<svg xmlns="http://www.w3.org/2000/svg" viewBox="0 0 32 32">
  <path fill="#ffb3ba" d="M16,16 L16,0 A16,16 0 0,1 27.31,4.69 Z"/>
  <path fill="#ffd9b3" d="M16,16 L27.31,4.69 A16,16 0 0,1 32,16 Z"/>
  <path fill="#fffbb3" d="M16,16 L32,16 A16,16 0 0,1 27.31,27.31 Z"/>
  <path fill="#b3f5cc" d="M16,16 L27.31,27.31 A16,16 0 0,1 16,32 Z"/>
  <path fill="#b3d9ff" d="M16,16 L16,32 A16,16 0 0,1 4.69,27.31 Z"/>
  <path fill="#c9b8ff" d="M16,16 L4.69,27.31 A16,16 0 0,1 0,16 Z"/>
  <path fill="#f5b3ff" d="M16,16 L0,16 A16,16 0 0,1 4.69,4.69 Z"/>
  <path fill="#ffb3ba" d="M16,16 L4.69,4.69 A16,16 0 0,1 16,0 Z"/>
</svg>
